<?xml version="1.0" encoding="UTF-8"?>
<svg width="128pt" height="128pt" version="1.1" viewBox="0 0 128 128" xmlns="http://www.w3.org/2000/svg">
 <path d="m64 5.4844c-5.0469 0-9.125 4.1758-9.125 9.2617v7.2852c-1.5234-1.1641-3.4258-1.8594-5.4805-1.8594-5.0469 0-9.125 4.1914-9.125 9.2734v18.16l-0.003906-0.003907c-1.5195-1.1602-3.4141-1.8438-5.4648-1.8438-5.0469 0-9.1367 4.1758-9.1367 9.2617v30.27c0 0.003907 0 0.015626-0.003906 0.023438 0.21484 20.738 17.285 37.41 38.07 37.199h0.55469c20.996 0 38.051-17.012 38.051-37.961v-45.059c0-5.0859-4.0781-9.2617-9.125-9.2617-2.0547 0-3.9492 0.69531-5.4805 1.8594v-11.254c0-5.0859-4.0781-9.2734-9.125-9.2734-2.0898 0-4.0156 0.72656-5.5547 1.9297-0.60938-4.5-4.4297-8.0039-9.0547-8.0039zm0 3.6602c3.0469 0 5.4805 2.4453 5.4805 5.6016v40.27c0 0.69922 0.39844 1.3438 1.0312 1.6484 0.25 0.12109 0.51953 0.18359 0.79688 0.18359 0.046875 0 0.09375 0 0.14062-0.003906 0.050781-0.003906 0.10156-0.011719 0.14844-0.019531 0.023438-0.003907 0.050782-0.011719 0.074219-0.015625 0.078125-0.015625 0.15625-0.035156 0.23047-0.058594 0.035156-0.015625 0.074218-0.023438 0.10938-0.039062 0.011719-0.003907 0.019531-0.011719 0.035156-0.015626 0.03125-0.015624 0.058594-0.035156 0.09375-0.050781 0.015625-0.003906 0.023437-0.015625 0.039063-0.019531 0.03125-0.015625 0.058593-0.03125 0.085937-0.050781 0.015625-0.011719 0.035156-0.015625 0.050781-0.023438 0.023438-0.015625 0.050782-0.035156 0.074219-0.050781 0.015625-0.011719 0.03125-0.019531 0.050781-0.035156 0.019532-0.015625 0.039063-0.035156 0.058594-0.054688 0.003906-0.003906 0.011719-0.011718 0.015625-0.015625 0.03125-0.023437 0.066406-0.054687 0.09375-0.089843 0.019531-0.015626 0.035156-0.035157 0.054687-0.054688 0.003907 0 0.011719-0.003906 0.015626-0.011719 0.058593-0.070312 0.12109-0.14844 0.17187-0.22656 0.011719-0.019531 0.019532-0.035157 0.03125-0.050781 0.015626-0.03125 0.03125-0.054688 0.046876-0.085938 0.003906-0.003906 0.003906-0.011719 0.003906-0.015625 0.035156-0.066406 0.070312-0.13672 0.09375-0.20312 0.03125-0.074219 0.054687-0.14844 0.070312-0.22656 0.003906-0.019532 0.011719-0.039063 0.015625-0.058594 0.011719-0.023438 0.015625-0.054688 0.019531-0.085938 0.011719-0.046875 0.015626-0.089844 0.019532-0.13672v-0.011719c0.003906-0.050781 0.003906-0.09375 0.003906-0.14453v-34.176c0-3.1562 2.4258-5.6211 5.4688-5.6211 3.0469 0 5.4688 2.4609 5.4688 5.6211v34.172h-0.003906c-0.003906 0.85547 0.58984 1.6055 1.4258 1.7891 0.13672 0.03125 0.27344 0.046875 0.41016 0.046875 0.046875 0 0.089844 0 0.13672-0.003907 0.050781-0.003906 0.09375-0.011718 0.14062-0.019531 0.039063-0.011719 0.085937-0.019531 0.12891-0.03125h0.019531c0.085938-0.023437 0.16406-0.050781 0.24609-0.078125 0.003906-0.003906 0.015625-0.011718 0.023438-0.015625 0.035156-0.015625 0.066406-0.023437 0.09375-0.039062 0.015625-0.011719 0.023437-0.015625 0.035156-0.019531 0.03125-0.015626 0.054688-0.035157 0.085938-0.050782 0.011718-0.011718 0.023437-0.019531 0.039062-0.03125 0.023438-0.015625 0.050781-0.03125 0.074219-0.046875 0.015625-0.011719 0.03125-0.019531 0.039062-0.03125 0.023438-0.015625 0.046875-0.03125 0.066407-0.046875l0.046874-0.046875c0.019532-0.015625 0.039063-0.03125 0.058594-0.046875 0.015625-0.019531 0.03125-0.035156 0.046875-0.050781s0.035157-0.035156 0.050781-0.050781c0.015626-0.015625 0.03125-0.035156 0.050782-0.054688 0.011718-0.015625 0.023437-0.03125 0.039062-0.050781s0.03125-0.039063 0.050782-0.058594c0.011718-0.015625 0.019531-0.03125 0.03125-0.050781 0.019531-0.023438 0.035156-0.050781 0.050781-0.074219 0.011719-0.011719 0.019531-0.023437 0.03125-0.039062 0.015625-0.03125 0.03125-0.054688 0.046875-0.085938 0.011718-0.011719 0.015625-0.023437 0.019531-0.035156 0.003906-0.003906 0.011719-0.015625 0.015625-0.019531 0.015625-0.035156 0.03125-0.070313 0.046875-0.10547 0-0.011719 0.003906-0.023437 0.011719-0.035156 0.011718-0.023438 0.019531-0.046875 0.03125-0.070313 0.015625-0.046875 0.03125-0.09375 0.039062-0.14062 0.011719-0.050781 0.019532-0.10156 0.03125-0.15625 0.011719-0.089843 0.019532-0.17969 0.019532-0.27344v-15.52c0-3.1602 2.4336-5.6055 5.4805-5.6055s5.4688 2.4453 5.4688 5.6055v45.059c0 18.969-15.371 34.301-34.395 34.301h-0.58594c-18.805 0.19531-34.16-14.801-34.379-33.547v-30.297c0-3.1602 2.4336-5.6016 5.4805-5.6016s5.4688 2.4453 5.4688 5.6016v15.523h-0.003906c0.003906 0.125 0.015625 0.25 0.046875 0.37109 0.003906 0.035156 0.015625 0.074219 0.023437 0.10938 0.023438 0.085937 0.054688 0.17188 0.089844 0.25391 0.015625 0.035156 0.03125 0.070312 0.050781 0.10547 0.046875 0.089843 0.10156 0.17578 0.16406 0.26172 0.011718 0.015624 0.023437 0.035156 0.039062 0.054687 0.078125 0.09375 0.16406 0.18359 0.26562 0.26562 0.023438 0.015625 0.054688 0.035156 0.085938 0.054688 0.070312 0.050781 0.14844 0.09375 0.23047 0.14062 0.035156 0.015626 0.070312 0.035157 0.10937 0.054688 0.078126 0.035156 0.16406 0.066406 0.25 0.085938 0.035157 0.011718 0.074219 0.019531 0.10938 0.03125 0.12109 0.023437 0.24609 0.039062 0.37109 0.039062h0.30859c7.3164 0 13.199 5.8867 13.199 13.176v3.2539c0.003906 1.0039 0.82031 1.8203 1.8242 1.8203 0.48438 0.003906 0.94922-0.18359 1.2969-0.52344 0.34375-0.34375 0.53906-0.80859 0.54687-1.2969v-3.2539c0-8.7656-6.7695-15.984-15.352-16.75v-39.336c0-3.1602 2.4258-5.6133 5.4688-5.6133 3.0469 0 5.4805 2.4531 5.4805 5.6133v25.566h-0.003907c0 0.12891 0.015626 0.26172 0.039063 0.38672 0.015625 0.039062 0.023437 0.085937 0.039063 0.125 0.023437 0.078125 0.050781 0.15625 0.078124 0.23047 0.023438 0.054687 0.054688 0.10937 0.085938 0.16016 0.035156 0.058594 0.070312 0.12109 0.10938 0.17578 0.035156 0.046875 0.070313 0.089844 0.10547 0.12891 0.050781 0.058594 0.10547 0.11328 0.16016 0.16406 0.039062 0.035156 0.078125 0.070312 0.125 0.10156 0.066406 0.050782 0.13672 0.09375 0.20312 0.12891 0.039063 0.023438 0.078125 0.046876 0.12109 0.066407 0.085937 0.035156 0.17188 0.066406 0.26172 0.089843 0.035156 0.011719 0.074218 0.023438 0.11328 0.035157 0.125 0.023437 0.25 0.039062 0.37891 0.039062 0.046875 0 0.085937 0 0.12891-0.003906 0.085938-0.003906 0.17578-0.015625 0.26172-0.035156 0.019531-0.003907 0.039062-0.003907 0.058594-0.011719 0.023437-0.011719 0.046875-0.015625 0.070312-0.023438 0.023438-0.003906 0.054688-0.015624 0.078125-0.023437 0.015625-0.003906 0.03125-0.015625 0.046875-0.019531 0.078125-0.03125 0.16016-0.066406 0.23438-0.10547 0 0 0-0.003906 0.003907-0.003906 0.023437-0.015625 0.050781-0.03125 0.074218-0.046875 0.015625-0.011719 0.023438-0.015625 0.035156-0.023438 0.003907 0 0.011719 0 0.015626-0.003906 0.070312-0.046875 0.13672-0.09375 0.19922-0.14844 0.015625-0.011718 0.03125-0.023437 0.039063-0.035156 0.019531-0.015625 0.039062-0.035156 0.054687-0.054687 0.054688-0.050781 0.10547-0.10938 0.14844-0.17188 0.011718-0.003906 0.015625-0.015625 0.023437-0.023438 0.019531-0.03125 0.046875-0.066406 0.066407-0.09375v-0.003906c0.003906 0 0.003906-0.003906 0.011718-0.003906 0.023438-0.039063 0.046875-0.078125 0.070313-0.125 0.015625-0.035156 0.035156-0.070313 0.054687-0.10938 0.003906-0.011719 0.003906-0.015625 0.011719-0.023438 0.015625-0.035156 0.03125-0.066406 0.046875-0.10156 0.003906-0.011719 0.011719-0.023438 0.011719-0.039063 0.011719-0.023437 0.019531-0.054687 0.03125-0.078125 0.003906-0.019531 0.015625-0.046875 0.019531-0.066406s0.011719-0.039063 0.015625-0.058594c0.003906-0.03125 0.015625-0.058593 0.019531-0.089843v-0.003907c0.015625-0.10156 0.023438-0.19922 0.03125-0.30078v-40.266c0-3.1602 2.4219-5.6016 5.4648-5.6016z" fill="#2e2f25"/>
</svg>
